<?xml version="1.0" encoding="utf-8"?>
<!-- Generator: Adobe Illustrator 22.0.0, SVG Export Plug-In . SVG Version: 6.00 Build 0)  -->
<svg version="1.1" id="Layer_1" xmlns="http://www.w3.org/2000/svg" xmlns:xlink="http://www.w3.org/1999/xlink" x="0px" y="0px"
	 viewBox="0 0 60 60" style="enable-background:new 0 0 60 60;" xml:space="preserve">
<style type="text/css">
	.st0{display:none;}
	.st1{display:inline;fill:#00A69C;}
	.st2{display:inline;}
	.st3{fill:#FFFFFF;}
	.st4{fill:#F89F33;}
</style>
<g class="st0">
	<ellipse transform="matrix(0.9895 -0.1449 0.1449 0.9895 -4.0297 4.6627)" class="st1" cx="30" cy="30" rx="29.9" ry="29.9"/>
	<g class="st2">
		<path class="st3" d="M52.1,21.7c-0.3-0.1-0.7-0.1-1,0.2l-4,4c-5.2-5.2-11.6-8-18.3-8c-3.9,0-7.7,1-11.3,2.9c-3.7,2-7,4.8-9.9,8.5
			l-0.2,0.3c-0.3,0.3-0.3,0.8,0,1.1l0.2,0.3c2.8,3.7,6.2,6.6,9.9,8.5c3.6,1.9,7.4,2.9,11.3,2.9c3.4,0,6.7-0.7,9.9-2.2
			c3-1.4,5.8-3.3,8.3-5.9l4,4c0.3,0.3,0.7,0.3,1,0.2c0.3-0.1,0.6-0.5,0.6-0.8v-15C52.7,22.1,52.5,21.8,52.1,21.7z M9.4,30
			c3.7-4.7,8.2-7.9,13.1-9.4c0.9,3,1.3,6.2,1.3,9.4c0,3.2-0.4,6.4-1.3,9.4C17.6,37.9,13.1,34.7,9.4,30z M50.9,35.3l-3.1-3.1
			c-0.2-0.2-0.4-0.3-0.7-0.3c-0.2,0-0.5,0.1-0.6,0.3c-2.5,2.7-5.3,4.7-8.4,6.1c-3,1.3-6,2-9.2,2c-1.6,0-3.1-0.2-4.6-0.5
			c0.9-3.2,1.4-6.5,1.4-9.9c0-3.4-0.5-6.7-1.4-9.9c1.5-0.3,3.1-0.5,4.6-0.5c3.1,0,6.2,0.7,9.2,2c3.1,1.4,5.9,3.4,8.4,6.1
			c0.2,0.2,0.4,0.3,0.6,0.3c0.2,0,0.5-0.1,0.7-0.3l3.1-3.1V35.3z"/>
		<path class="st3" d="M18,24.6c-1.6,0-3,1.3-3,3s1.3,3,3,3c1.6,0,3-1.3,3-3S19.7,24.6,18,24.6z M18,28.8c-0.6,0-1.2-0.5-1.2-1.2
			c0-0.6,0.5-1.2,1.2-1.2s1.2,0.5,1.2,1.2C19.2,28.2,18.7,28.8,18,28.8z"/>
	</g>
</g>
<g>
	<circle class="st4" cx="30" cy="30" r="29.9"/>
	<g>
		<path class="st3" d="M40.2,18.8c-1.3-2-2.8-3.5-4.5-4.6C33.9,13,32,12.4,30,12.4c-2,0-3.9,0.6-5.7,1.8c-1.7,1.1-3.2,2.7-4.5,4.6
			c-2.6,3.9-4,8.8-4,13.5c0,4.6,1.4,8.5,4.2,11.3c2.5,2.6,6.1,4,10,4s7.5-1.4,10-4c2.7-2.8,4.2-6.7,4.2-11.3
			C44.2,27.6,42.7,22.7,40.2,18.8z M38.7,42.3c-2.2,2.2-5.3,3.5-8.7,3.5c-3.4,0-6.6-1.2-8.7-3.5c-2.4-2.4-3.6-5.9-3.6-10
			c0-4.4,1.4-8.9,3.7-12.5c2.4-3.6,5.5-5.6,8.6-5.6c3.1,0,6.2,2,8.6,5.6c2.4,3.6,3.7,8.1,3.7,12.5C42.4,36.5,41.1,39.9,38.7,42.3z"
			/>
		<path class="st3" d="M30,15.4c-2.7,0-5.4,1.9-7.6,5.1c-0.3,0.4-0.2,1,0.3,1.3c0.2,0.1,0.3,0.2,0.5,0.2c0.3,0,0.6-0.1,0.8-0.4
			c1.8-2.7,4-4.3,6.1-4.3c0.5,0,0.9-0.4,0.9-0.9C30.9,15.8,30.5,15.4,30,15.4z"/>
	</g>
</g>
</svg>
