<?xml version="1.0" encoding="utf-8"?>
<!-- Generator: Adobe Illustrator 22.0.0, SVG Export Plug-In . SVG Version: 6.00 Build 0)  -->
<svg version="1.1" id="Layer_1" xmlns="http://www.w3.org/2000/svg" xmlns:xlink="http://www.w3.org/1999/xlink" x="0px" y="0px"
	 viewBox="0 0 60 60" style="enable-background:new 0 0 60 60;" xml:space="preserve">
<style type="text/css">
	.st0{fill:#00A69C;}
	.st1{fill:#FFFFFF;}
</style>
<g>
	<ellipse transform="matrix(0.9895 -0.1449 0.1449 0.9895 -4.0297 4.6627)" class="st0" cx="30" cy="30" rx="29.9" ry="29.9"/>
	<g>
		<path class="st1" d="M52.1,21.7c-0.3-0.1-0.7-0.1-1,0.2l-4,4c-5.2-5.2-11.6-8-18.3-8c-3.9,0-7.7,1-11.3,2.9c-3.7,2-7,4.8-9.9,8.5
			l-0.2,0.3c-0.3,0.3-0.3,0.8,0,1.1l0.2,0.3c2.8,3.7,6.2,6.6,9.9,8.5c3.6,1.9,7.4,2.9,11.3,2.9c3.4,0,6.7-0.7,9.9-2.2
			c3-1.4,5.8-3.3,8.3-5.9l4,4c0.3,0.3,0.7,0.3,1,0.2c0.3-0.1,0.6-0.5,0.6-0.8v-15C52.7,22.1,52.5,21.8,52.1,21.7z M9.4,30
			c3.7-4.7,8.2-7.9,13.1-9.4c0.9,3,1.3,6.2,1.3,9.4c0,3.2-0.4,6.4-1.3,9.4C17.6,37.9,13.1,34.7,9.4,30z M50.9,35.3l-3.1-3.1
			c-0.2-0.2-0.4-0.3-0.7-0.3c-0.2,0-0.5,0.1-0.6,0.3c-2.5,2.7-5.3,4.7-8.4,6.1c-3,1.3-6,2-9.2,2c-1.6,0-3.1-0.2-4.6-0.5
			c0.9-3.2,1.4-6.5,1.4-9.9c0-3.4-0.5-6.7-1.4-9.9c1.5-0.3,3.1-0.5,4.6-0.5c3.1,0,6.2,0.7,9.2,2c3.1,1.4,5.9,3.4,8.4,6.1
			c0.2,0.2,0.4,0.3,0.6,0.3c0.2,0,0.5-0.1,0.7-0.3l3.1-3.1V35.3z"/>
		<path class="st1" d="M18,24.6c-1.6,0-3,1.3-3,3s1.3,3,3,3c1.6,0,3-1.3,3-3S19.7,24.6,18,24.6z M18,28.8c-0.6,0-1.2-0.5-1.2-1.2
			c0-0.6,0.5-1.2,1.2-1.2s1.2,0.5,1.2,1.2C19.2,28.2,18.7,28.8,18,28.8z"/>
	</g>
</g>
</svg>
