<?xml version="1.0" encoding="utf-8"?>
<!-- Generator: Adobe Illustrator 22.0.0, SVG Export Plug-In . SVG Version: 6.00 Build 0)  -->
<svg version="1.1" id="Layer_1" xmlns="http://www.w3.org/2000/svg" xmlns:xlink="http://www.w3.org/1999/xlink" x="0px" y="0px"
	 viewBox="0 0 60 60" style="enable-background:new 0 0 60 60;" xml:space="preserve">
<style type="text/css">
	.st0{display:none;}
	.st1{display:inline;fill:#00A69C;}
	.st2{display:inline;}
	.st3{fill:#FFFFFF;}
	.st4{display:inline;fill:#F89F33;}
	.st5{display:inline;fill:#F16534;}
	.st6{display:inline;fill:#FFFFFF;}
	.st7{fill:#FFC849;}
</style>
<g class="st0">
	<ellipse transform="matrix(0.9895 -0.1449 0.1449 0.9895 -4.0297 4.6627)" class="st1" cx="30" cy="30" rx="29.9" ry="29.9"/>
	<g class="st2">
		<path class="st3" d="M52.1,21.7c-0.3-0.1-0.7-0.1-1,0.2l-4,4c-5.2-5.2-11.6-8-18.3-8c-3.9,0-7.7,1-11.3,2.9c-3.7,2-7,4.8-9.9,8.5
			l-0.2,0.3c-0.3,0.3-0.3,0.8,0,1.1l0.2,0.3c2.8,3.7,6.2,6.6,9.9,8.5c3.6,1.9,7.4,2.9,11.3,2.9c3.4,0,6.7-0.7,9.9-2.2
			c3-1.4,5.8-3.3,8.3-5.9l4,4c0.3,0.3,0.7,0.3,1,0.2c0.3-0.1,0.6-0.5,0.6-0.8v-15C52.7,22.1,52.5,21.8,52.1,21.7z M9.4,30
			c3.7-4.7,8.2-7.9,13.1-9.4c0.9,3,1.3,6.2,1.3,9.4c0,3.2-0.4,6.4-1.3,9.4C17.6,37.9,13.1,34.7,9.4,30z M50.9,35.3l-3.1-3.1
			c-0.2-0.2-0.4-0.3-0.7-0.3c-0.2,0-0.5,0.1-0.6,0.3c-2.5,2.7-5.3,4.7-8.4,6.1c-3,1.3-6,2-9.2,2c-1.6,0-3.1-0.2-4.6-0.5
			c0.9-3.2,1.4-6.5,1.4-9.9c0-3.4-0.5-6.7-1.4-9.9c1.5-0.3,3.1-0.5,4.6-0.5c3.1,0,6.2,0.7,9.2,2c3.1,1.4,5.9,3.4,8.4,6.1
			c0.2,0.2,0.4,0.3,0.6,0.3c0.2,0,0.5-0.1,0.7-0.3l3.1-3.1V35.3z"/>
		<path class="st3" d="M18,24.6c-1.6,0-3,1.3-3,3s1.3,3,3,3c1.6,0,3-1.3,3-3S19.7,24.6,18,24.6z M18,28.8c-0.6,0-1.2-0.5-1.2-1.2
			c0-0.6,0.5-1.2,1.2-1.2s1.2,0.5,1.2,1.2C19.2,28.2,18.7,28.8,18,28.8z"/>
	</g>
</g>
<g class="st0">
	<circle class="st4" cx="30" cy="30" r="29.9"/>
	<g class="st2">
		<path class="st3" d="M40.2,18.8c-1.3-2-2.8-3.5-4.5-4.6C33.9,13,32,12.4,30,12.4c-2,0-3.9,0.6-5.7,1.8c-1.7,1.1-3.2,2.7-4.5,4.6
			c-2.6,3.9-4,8.8-4,13.5c0,4.6,1.4,8.5,4.2,11.3c2.5,2.6,6.1,4,10,4s7.5-1.4,10-4c2.7-2.8,4.2-6.7,4.2-11.3
			C44.2,27.6,42.7,22.7,40.2,18.8z M38.7,42.3c-2.2,2.2-5.3,3.5-8.7,3.5c-3.4,0-6.6-1.2-8.7-3.5c-2.4-2.4-3.6-5.9-3.6-10
			c0-4.4,1.4-8.9,3.7-12.5c2.4-3.6,5.5-5.6,8.6-5.6c3.1,0,6.2,2,8.6,5.6c2.4,3.6,3.7,8.1,3.7,12.5C42.4,36.5,41.1,39.9,38.7,42.3z"
			/>
		<path class="st3" d="M30,15.4c-2.7,0-5.4,1.9-7.6,5.1c-0.3,0.4-0.2,1,0.3,1.3c0.2,0.1,0.3,0.2,0.5,0.2c0.3,0,0.6-0.1,0.8-0.4
			c1.8-2.7,4-4.3,6.1-4.3c0.5,0,0.9-0.4,0.9-0.9C30.9,15.8,30.5,15.4,30,15.4z"/>
	</g>
</g>
<g class="st0">
	<circle class="st5" cx="30" cy="30" r="29.7"/>
	<path class="st6" d="M35.5,32.9c4.6-2.1,7.5-6.7,7.5-11.8c0-0.5-0.4-0.9-0.9-0.9c-0.5,0-0.9,0.4-0.9,0.9c0,4.1-2.2,7.8-5.7,9.8
		c-0.2-1.4-1-2.7-2.1-3.5c2.8-1.2,4.8-3.9,5.1-7.1c0.8-0.3,1.5-1.1,2-2.3c0.6-1.3,0.9-3.1,0.9-5c0-3.1-0.9-5.8-2.2-6.9
		c-0.3-0.2-0.6-0.3-0.9-0.1c-0.3,0.1-0.5,0.4-0.5,0.8c-0.2,2.8-1.3,4.5-1.9,4.5c-0.1,0-0.2-0.1-0.4-0.2c-0.3-0.2-0.6-0.3-0.9-0.1
		c-0.3,0.1-0.5,0.4-0.5,0.8c0,0.4,0,0.8,0,1.2c0,1.9,0.3,3.6,0.9,5c0.5,1.1,1.2,1.9,1.9,2.2c-0.4,3.4-3.2,6-6.7,6
		c-3.5,0-6.4-2.7-6.7-6.1c0.7-0.4,1.3-1.1,1.8-2.2c0.6-1.3,0.9-3.1,0.9-5c0-0.4,0-0.8,0-1.2c0-0.3-0.2-0.6-0.5-0.8
		c-0.3-0.1-0.7-0.1-0.9,0.1c-0.1,0.1-0.3,0.2-0.4,0.2c-0.3,0-0.7-0.4-1-1.1c-0.5-0.9-0.8-2.1-0.9-3.5c0-0.3-0.2-0.6-0.5-0.8
		C21.3,5.9,21,6,20.7,6.2c-1.4,1.1-2.2,3.8-2.2,6.9c0,1.9,0.3,3.6,0.9,5c0.5,1.2,1.3,2,2.1,2.3c0.3,3.2,2.3,5.9,5.2,7
		c-1.1,0.8-1.9,2.1-2.1,3.5c-1.5-0.8-2.9-2-3.9-3.5c-1.3-1.9-2-4.1-2-6.3c0-0.5-0.4-0.9-0.9-0.9c-0.5,0-0.9,0.4-0.9,0.9
		c0,2.6,0.8,5.2,2.3,7.4c1.3,1.9,3.2,3.5,5.3,4.5v11.4c0,1.5,0.6,2.9,1.6,3.9L22,52.5c-0.3,0.3-0.3,0.6-0.2,1
		c0.1,0.3,0.5,0.6,0.8,0.6h14.8c0.4,0,0.7-0.2,0.8-0.6c0.1-0.3,0.1-0.7-0.2-1l-4.2-4.2c1-1,1.6-2.3,1.6-3.8V32.9z M35.7,13.2
		c0,0,0.1,0,0.1,0c1.5,0,2.7-1.4,3.3-3.7c0.3,1.1,0.5,2.4,0.5,3.6c0,1.6-0.3,3.2-0.8,4.3c-0.4,0.9-0.8,1.3-1.1,1.4c0,0-0.1,0-0.1,0
		s-0.1,0-0.1,0c-0.3-0.1-0.7-0.5-1.1-1.4C35.9,16.3,35.7,14.7,35.7,13.2z M20.3,13.1c0-1.4,0.2-2.7,0.5-3.6c0.6,2.3,1.8,3.7,3.3,3.7
		c0,0,0.1,0,0.1,0c0,1.6-0.3,3.1-0.8,4.2c-0.4,0.9-0.8,1.3-1.1,1.4c0,0-0.1,0-0.1,0c-0.3,0-0.7-0.4-1.2-1.4
		C20.6,16.2,20.3,14.7,20.3,13.1z M32,47.5c0,0-0.1,0-0.1,0.1c0,0-0.1,0-0.1,0.1c-0.1,0-0.1,0.1-0.2,0.1c0,0-0.1,0-0.1,0
		c0,0-0.1,0-0.1,0.1c0,0-0.1,0-0.1,0c-0.1,0-0.1,0-0.2,0.1c0,0,0,0-0.1,0c-0.1,0-0.1,0-0.2,0c0,0,0,0-0.1,0c-0.1,0-0.1,0-0.2,0
		c0,0,0,0,0,0c-0.1,0-0.1,0-0.2,0c0,0,0,0-0.1,0c-0.1,0-0.2,0-0.2,0H30c-0.1,0-0.2,0-0.2,0c0,0,0,0-0.1,0c-0.1,0-0.1,0-0.2,0
		c0,0,0,0,0,0c-0.1,0-0.2,0-0.2,0c0,0,0,0,0,0c-0.1,0-0.1,0-0.2,0c0,0,0,0,0,0c-0.1,0-0.1,0-0.2-0.1c0,0,0,0,0,0
		c-0.1,0-0.1,0-0.2-0.1c0,0,0,0-0.1,0c-0.1,0-0.1-0.1-0.2-0.1c0,0,0,0,0,0c-0.1,0-0.1-0.1-0.2-0.1c-1-0.6-1.7-1.8-1.7-3.1v-5
		c1,0.9,2.2,1.4,3.6,1.4h0.1c1.4,0,2.7-0.5,3.6-1.4v5C33.7,45.7,33,46.8,32,47.5z M30,28.1L30,28.1c2.1,0,3.7,1.6,3.7,3.6v0.6
		c0,0,0,0,0,0v3c0,2-1.6,3.6-3.6,3.6H30c-2,0-3.6-1.6-3.6-3.6v-3c0,0,0,0,0,0v-0.6C26.4,29.7,28,28.1,30,28.1z M24.9,52.2l2.8-2.8
		c0,0,0.1,0,0.1,0c0,0,0.1,0,0.1,0.1c0,0,0.1,0,0.1,0c0.1,0,0.1,0,0.2,0.1c0,0,0.1,0,0.1,0c0.1,0,0.1,0,0.2,0.1c0,0,0.1,0,0.1,0
		c0.1,0,0.1,0,0.2,0c0,0,0.1,0,0.1,0c0.1,0,0.1,0,0.2,0c0,0,0.1,0,0.1,0c0.1,0,0.1,0,0.2,0c0,0,0.1,0,0.1,0c0.1,0,0.1,0,0.2,0
		c0,0,0.1,0,0.1,0c0.1,0,0.2,0,0.3,0h0.1c0.1,0,0.2,0,0.3,0c0,0,0.1,0,0.1,0c0.1,0,0.1,0,0.2,0c0,0,0.1,0,0.1,0c0.1,0,0.1,0,0.2,0
		c0,0,0.1,0,0.1,0c0.1,0,0.1,0,0.1,0c0,0,0.1,0,0.1,0c0,0,0.1,0,0.1,0c0,0,0.1,0,0.1,0c0,0,0.1,0,0.1,0c0.1,0,0.1,0,0.2-0.1
		c0,0,0.1,0,0.1,0c0.1-0.1,0.3-0.1,0.4-0.2l2.9,2.9H24.9z"/>
</g>
<g>
	<circle class="st7" cx="30" cy="30" r="29.7"/>
	<path class="st3" d="M35.8,3.9c-0.5,0-0.9,0.4-0.9,0.9v6.9v0.1c0,2.4-1.7,4.3-4,4.7v-3.2c0-0.5-0.4-0.9-0.9-0.9s-0.9,0.4-0.9,0.9
		v3.2c-2.3-0.4-4-2.4-4-4.7v-0.1V4.8c0-0.5-0.4-0.9-0.9-0.9c-0.5,0-0.9,0.4-0.9,0.9v6.9v0.1v6.8v0.1v6.8v0.1v6.8v0.1v6.9
		c0,3.4,2.5,6.2,5.8,6.6v9.2c0,0.5,0.4,0.9,0.9,0.9s0.9-0.4,0.9-0.9V46c3.3-0.4,5.8-3.2,5.8-6.6v-6.9v-0.1v-6.8v-0.1v-6.8v-0.1v-6.8
		v-0.1V4.8C36.7,4.3,36.3,3.9,35.8,3.9z M29.1,18.3v5.1c-2.3-0.4-4-2.4-4-4.7v-0.1v-2.3C26.1,17.4,27.5,18.1,29.1,18.3z M29.1,25.2
		v5.1c-2.3-0.4-4-2.4-4-4.7v-0.1v-2.3C26.1,24.3,27.5,25,29.1,25.2z M29.1,32.2v5.1c-2.3-0.4-4-2.4-4-4.7v-0.1v-2.3
		C26.1,31.2,27.5,32,29.1,32.2z M25.1,39.4V37c1,1.1,2.4,1.8,4,2v5.1C26.8,43.7,25.1,41.8,25.1,39.4z M34.9,39.4
		c0,2.4-1.7,4.3-4,4.7v-5.1c1.6-0.2,2.9-0.9,4-2V39.4z M34.9,32.4L34.9,32.4c0,2.4-1.7,4.4-4,4.8v-5.1c1.6-0.2,2.9-0.9,4-2V32.4z
		 M34.9,25.5L34.9,25.5c0,2.4-1.7,4.4-4,4.8v-5.1c1.6-0.2,2.9-0.9,4-2V25.5z M34.9,18.6L34.9,18.6c0,2.4-1.7,4.4-4,4.8v-5.1
		c1.6-0.2,2.9-0.9,4-2V18.6z"/>
</g>
</svg>
